<?xml version="1.0" encoding="utf-8"?>
<svg id="master-artboard" viewBox="0 0 1400 980" version="1.1" xmlns="http://www.w3.org/2000/svg" x="0px" y="0px" width="1400px" height="980px" enable-background="new 0 0 1400 980" xmlns:xlink="http://www.w3.org/1999/xlink">
<defs>
		<path d="M 1400 981 L 0 981 L 0 1 L 1400 -2 Z" id="SVGID_1_"/>
	</defs><clipPath id="SVGID_2_">
		<use overflow="visible" xlink:href="#SVGID_1_"/>
	</clipPath><path d="M 0 -35 H 1400 V 979 H 0 V -35 Z" clip-path="url(#SVGID_2_)" fill="#EBBC50" transform="matrix(1, 0, 0, 1, 0, 0)"/><linearGradient id="SVGID_3_" gradientUnits="userSpaceOnUse" x1="700.0005" y1="317.5908" x2="700.0005" y2="-28.5243">
		<stop offset="0" style="stop-color:#006094;stop-opacity:0"/>
		<stop offset="1" style="stop-color:#006094"/>
	</linearGradient><path d="M 0 -27 H 1400 V 979 H 0 V -27 Z" opacity="0.48" clip-path="url(#SVGID_2_)" fill="url(#SVGID_3_)" transform="matrix(1, 0, 0, 1, 0, 0)"/><path clip-path="url(#SVGID_2_)" fill="#FEDF8C" d="M77.186,192.293c28.554,20.416,46.832,51.761,53.812,85.827&#10;&#9;&#9;c9.191,44.858,5.23,39.871,51.004,45.009c65.728,7.378,127.923,52.636,150.026,115.77c6.584,18.808,13.401,42.239,32.867,46.507&#10;&#9;&#9;c9.527,2.089,19.386-1.463,29.128-1.006c31.705,1.489,47.415,41.613,77.247,52.449c6.042,2.193,12.855,3.291,17.423,7.813&#10;&#9;&#9;c7.103,7.033,5.605,18.892,9.947,27.896c8.186,16.976,34.55,19.725,40.892,37.471c5.098,14.266-4.849,33.658,6.616,43.56&#10;&#9;&#9;c5.581,4.819,14.026,4.702,20.121,8.853c16.111,10.969,14.266,36.342,33.33,47.081c18.842,10.614,30.967,2.49,50.705-1.348&#10;&#9;&#9;c46.947-9.129,106.993-20.071,151.021,4.298c9.588-41.521,48.032-74.649,90.514-77.997c-4.315-23.301,9.971-48.674,32.133-57.067&#10;&#9;&#9;c7.923-3.001,16.757-4.115,23.605-9.104c9.556-6.959,12.78-19.479,18.701-29.712s19.11-19.099,28.968-12.573&#10;&#9;&#9;c-9.044-94.068,76.062-186.066,170.548-184.36c4.876-66.381,72.232-121.313,138.237-112.739&#10;&#9;&#9;c32.622-23.215,68.676-41.6,106.625-54.368c63.214,241.024,1.795,494.505-16.174,743.032&#10;&#9;&#9;c-119.675,13.706-239.53,27.426-359.941,30.731c-127.579,3.503-255.158-4.701-382.51-13.073&#10;&#9;&#9;c-180.955-11.896-362.323-24.192-540.833-56.137c-18.311-3.276-37.02-6.919-52.984-16.466&#10;&#9;&#9;C18.204,838.715,7.272,786.711,0.158,740.637C-21.09,603.045-42.336,465.454-63.584,327.862&#10;&#9;&#9;c-6.401-41.448-31.044-116.497,9.518-148.333C-19.621,152.495,45.755,169.821,77.186,192.293z" transform="matrix(1, 0, 0, 1, 0, 0)"/><path clip-path="url(#SVGID_2_)" fill="#D77045" d="M-2.496,565.098h15.08V552.53h15.08v-45.239h22.62v7.54h7.54v25.133h42.726&#10;&#9;&#9;v70.372h12.566v15.08h42.726v-60.318h45.239V459.539h80.425V346.441h87.965v37.699h20.106v47.752h17.593v-20.106h40.212&#10;&#9;&#9;l10.053,10.053v125.664h30.16v138.231h65.345V451.999h12.566v-10.053h10.053V331.361h7.54v108.071h15.08v10.053h7.54l22.62,22.62&#10;&#9;&#9;v22.619h35.186v130.691h50.266v-98.019h12.566v42.727h20.106v-60.319h7.54v-35.186h5.026v-20.106l10.053-10.053h17.594v30.16h7.54&#10;&#9;&#9;v45.239h10.053v-37.699h12.566l16.337,16.336v-43.983h28.902V399.22h15.08v-77.912h5.026v77.912h17.593v125.665h37.699&#10;&#9;&#9;l45.239,45.239v60.318h45.239V489.698h10.054v-57.806h40.212v-27.646h32.673v50.266h30.16v67.859h87.965v-72.885h98.019v-45.239&#10;&#9;&#9;h20.105l12.566-12.566V286.122H1415v771.58c0,0-1421.266,3.77-1417.496,0C1.274,1053.932-2.496,565.098-2.496,565.098z" transform="matrix(1, 0, 0, 1, 0, 0)"/><linearGradient id="SVGID_4_" gradientUnits="userSpaceOnUse" x1="706.249" y1="562" x2="706.249" y2="1267.3735">
		<stop offset="0" style="stop-color:#006094;stop-opacity:0"/>
		<stop offset="1" style="stop-color:#006094"/>
	</linearGradient><path clip-path="url(#SVGID_2_)" fill="url(#SVGID_4_)" d="M-2.496,565.098h15.08V552.53h15.08v-45.239h22.62v7.54h7.54v25.133&#10;&#9;&#9;h42.726v70.372h12.566v15.08h42.726v-60.318h45.239V459.539h80.425V346.441h87.965v37.699h20.106v47.752h17.593v-20.106h40.212&#10;&#9;&#9;l10.053,10.053v125.664h30.16v138.231h65.345V451.999h12.566v-10.053h10.053V331.361h7.54v108.071h15.08v10.053h7.54l22.62,22.62&#10;&#9;&#9;v22.619h35.186v130.691h50.266v-98.019h12.566v42.727h20.106v-60.319h7.54v-35.186h5.026v-20.106l10.053-10.053h17.594v30.16h7.54&#10;&#9;&#9;v45.239h10.053v-37.699h12.566l16.337,16.336v-43.983h28.902V399.22h15.08v-77.912h5.026v77.912h17.593v125.665h37.699&#10;&#9;&#9;l45.239,45.239v60.318h45.239V489.698h10.054v-57.806h40.212v-27.646h32.673v50.266h30.16v67.859h87.965v-72.885h98.019v-45.239&#10;&#9;&#9;h20.105l12.566-12.566V286.122H1415v771.58c0,0-1421.266,3.77-1417.496,0C1.274,1053.932-2.496,565.098-2.496,565.098z" transform="matrix(1, 0, 0, 1, 0, 0)"/><path clip-path="url(#SVGID_2_)" fill="#AA5C48" d="M334.5,794.074l17.434-17.434h48.427v-40.68h42.616v-29.057h32.931v48.428&#10;&#9;&#9;h42.616l44.553,44.554h38.742l9.686,9.686h13.56v-73.61h79.421v34.868h42.616v15.497h38.742V757.27h25.182v52.302h27.12V673.975&#10;&#9;&#9;l26.15-26.151h64.893v177.244l71.673,71.673h89.106V611.987h34.868v-50.364h58.112v131.722h25.183v-67.798h48.428V550h73.609&#10;&#9;&#9;v63.924h42.616v151.094h19.37c0,0-3.874-102.666,0-106.54c3.875-3.874,25.183-25.183,25.183-25.183V1150.5H334.5V794.074z" transform="matrix(1, 0, 0, 1, 0, 0)"/><path clip-path="url(#SVGID_2_)" fill="#AA5C48" d="M613.337,815.074l-17.434-17.434h-48.428v-40.68H504.86v-29.057h-32.931v48.428&#10;&#9;&#9;h-42.616l-44.553,44.554h-38.742l-9.685,9.686h-13.56v-73.61h-79.421v34.868h-42.616v15.497h-38.742V778.27h-25.182v52.302h-27.12&#10;&#9;&#9;V694.975l-26.151-26.151H18.648v177.244l-71.673,71.673h-89.106V632.987h-34.868v-50.364h-58.113v131.722h-25.182v-67.798h-48.428&#10;&#9;&#9;V571h-73.609v63.924h-42.616v151.094h-19.371c0,0,3.875-102.666,0-106.54c-3.874-3.874-25.182-25.183-25.182-25.183V1171.5H613.337&#10;&#9;&#9;V815.074z" transform="matrix(1, 0, 0, 1, 0, 0)"/><linearGradient id="SVGID_5_" gradientUnits="userSpaceOnUse" x1="473.9185" y1="802" x2="473.9185" y2="1013.6034">
		<stop offset="0" style="stop-color:#006094;stop-opacity:0"/>
		<stop offset="1" style="stop-color:#006094"/>
	</linearGradient><path clip-path="url(#SVGID_2_)" fill="url(#SVGID_5_)" d="M1417.337,633.295c0,0-21.308,21.309-25.183,25.183&#10;&#9;&#9;c-3.873,3.874,0,106.54,0,106.54h-19.37V613.924h-42.616V550h-73.609v75.547h-48.428v67.798h-25.183V561.623h-58.113v50.364&#10;&#9;&#9;h-34.867V896.74h-89.106l-71.673-71.673V647.823h-64.893l-26.151,26.15v135.598h-27.119V757.27h-25.182v29.057h-38.742v-15.497&#10;&#9;&#9;h-42.616v-34.868h-79.421v73.61h-13.56l-9.686-9.686h-3.671l-2.245-2.245h-35.071l-13.356-13.356v-27.323h-27.322l-1.629-1.629&#10;&#9;&#9;h-13.665v-27.428h-28.951v-21h-32.931v29.057h-42.616v40.68h-48.428L334.5,794.074v36.497h-11.728v-73.61h-79.421v34.868h-42.616&#10;&#9;&#9;v15.497h-38.742V778.27h-25.182v52.302h-27.12V694.974l-26.151-26.15H18.648v177.244l-71.673,71.673h-89.106V632.987h-34.868&#10;&#9;&#9;v-50.364h-58.113v131.722h-25.182v-67.798h-48.427V571h-73.61v63.924h-42.616v151.094h-19.371c0,0,3.875-102.666,0-106.54&#10;&#9;&#9;c-3.874-3.874-25.182-25.183-25.182-25.183V1171.5H613.337v-21h804V633.295z" transform="matrix(1, 0, 0, 1, 0, 0)"/><path clip-path="url(#SVGID_2_)" fill="#4D333E" d="M1415,799h-53v48h-35v-97h-38v-63h-46v174h-65v16h-60v84h-14v-36h-10v-21h-10&#10;&#9;&#9;v-13h-8V744h-4v-36c0,0-23-21.5-21.5-21.5S1026,711,1026,711v36h-5v144h-11v15h-9v-66h-39v-64h-50v127h-46v14h-15v139h564V799z" transform="matrix(1, 0, 0, 1, 0, 0)"/><path clip-path="url(#SVGID_2_)" fill="#4D333E" d="M935,805h-53v48h-35v-97h-38v-63h-46v174h-65v16h-60v84h-14v-36h-10v-21h-10&#10;&#9;&#9;v-13h-8V750h-4v-36c0,0-23-21.5-21.5-21.5S546,717,546,717v36h-5v144h-11v15h-9v-66h-39v-64h-50v127h-46v14h-15v139h564V805z" transform="matrix(1, 0, 0, 1, 0, 0)"/><path clip-path="url(#SVGID_2_)" fill="#4D333E" d="M713,805h-53v48h-35v-97h-38v-63h-46v174h-65v16h-60v84h-14v-36h-10v-21h-10&#10;&#9;&#9;v-13h-8V750h-4v-36c0,0-23-21.5-21.5-21.5S324,717,324,717v36h-5v144h-11v15h-9v-66h-39v-64h-50v127h-46v14h-15v139h564V805z" transform="matrix(1, 0, 0, 1, 0, 0)"/><path clip-path="url(#SVGID_2_)" fill="#4D333E" d="M191,919h-53v48h-35v-97H65v-63H19v174h-65v16h-60v84h-14v-36h-10v-21h-10v-13&#10;&#9;&#9;h-8V864h-4v-36c0,0-23-21.5-21.5-21.5S-198,831-198,831v36h-5v144h-11v15h-9v-66h-39v-64h-50v127h-46v14h-15v139h564V919z" transform="matrix(1, 0, 0, 1, 0, 0)"/><linearGradient id="SVGID_6_" gradientUnits="userSpaceOnUse" x1="520.9995" y1="888" x2="520.9995" y2="1150.0302">
			<stop offset="0" style="stop-color:#006094;stop-opacity:0"/>
			<stop offset="1" style="stop-color:#006094"/>
		</linearGradient><path fill="url(#SVGID_6_)" d="M1415,799h-53v48h-35v-97h-38v-63h-46v174h-65v16h-60v84h-14v-36h-10v-21h-10v-13h-8V744h-4v-36&#10;&#9;&#9;&#9;c0,0-20.282-18.96-21.509-21.268C1049.161,689.175,1026,711,1026,711v36h-5v144h-11v15h-9v-66h-39v-64h-50v29h-30v48h-35v-97h-38&#10;&#9;&#9;&#9;v-63h-46v174h-50v-62h-53v48h-35v-97h-29v-6h-4v-36c0,0-2.108-1.971-5-4.713V693h-16.336c-0.075-0.104-0.135-0.195-0.173-0.268&#10;&#9;&#9;&#9;c-0.04,0.071-0.101,0.163-0.177,0.268H541v60v114h-20v-21h-39v-64h-50v101h-16v26h-30v1h-4v-13h-8V750h-4v-36&#10;&#9;&#9;&#9;c0,0-20.282-18.96-21.509-21.268C347.161,695.175,324,717,324,717v36h-5v144h-11v15h-9v-66h-39v-64h-50v127h-46v10h-26v48h-35v-97&#10;&#9;&#9;&#9;H65v-63H19v174h-65v16h-60v84h-14v-36h-10v-21h-10v-13h-8V864h-4v-36c0,0-20.282-18.96-21.509-21.268&#10;&#9;&#9;&#9;C-174.839,809.175-198,831-198,831v36h-5v144h-11v15h-9v-66h-39v-64h-50v127h-46v14h-15v139h564v-114h180h342h222v-6h480V799z" transform="matrix(1, 0, 0, 1, 0, 0)"/><linearGradient id="SVGID_7_" gradientUnits="userSpaceOnUse" x1="1050.4941" y1="686.5" x2="1050.4941" y2="686.7324">
			<stop offset="0" style="stop-color:#006094;stop-opacity:0"/>
			<stop offset="1" style="stop-color:#006094"/>
		</linearGradient><path fill="url(#SVGID_7_)" d="M1050.5,686.5c-0.092,0-0.089,0.082-0.009,0.232C1050.57,686.588,1050.584,686.5,1050.5,686.5z" transform="matrix(1, 0, 0, 1, 0, 0)"/><linearGradient id="SVGID_8_" gradientUnits="userSpaceOnUse" x1="570.4941" y1="692.5" x2="570.4941" y2="692.7324">
			<stop offset="0" style="stop-color:#006094;stop-opacity:0"/>
			<stop offset="1" style="stop-color:#006094"/>
		</linearGradient><path fill="url(#SVGID_8_)" d="M570.5,692.5c-0.091,0-0.089,0.082-0.009,0.232C570.57,692.588,570.584,692.5,570.5,692.5z" transform="matrix(1, 0, 0, 1, 0, 0)"/><linearGradient id="SVGID_9_" gradientUnits="userSpaceOnUse" x1="348.4941" y1="692.5" x2="348.4941" y2="692.7324">
			<stop offset="0" style="stop-color:#006094;stop-opacity:0"/>
			<stop offset="1" style="stop-color:#006094"/>
		</linearGradient><path fill="url(#SVGID_9_)" d="M348.5,692.5c-0.091,0-0.089,0.082-0.009,0.232C348.57,692.588,348.584,692.5,348.5,692.5z" transform="matrix(1, 0, 0, 1, 0, 0)"/><linearGradient id="SVGID_10_" gradientUnits="userSpaceOnUse" x1="-173.5059" y1="806.5" x2="-173.5059" y2="806.7324">
			<stop offset="0" style="stop-color:#006094;stop-opacity:0"/>
			<stop offset="1" style="stop-color:#006094"/>
		</linearGradient><path fill="#496862" d="M764.08,506.907c-0.369,5.293-1.1,11.14-5.1,14.625c-4.756,4.146-12.508,2.994-17.358-1.041&#10;&#9;&#9;&#9;c-4.85-4.036-7.374-10.187-9.197-16.227c-2.115-7.005-3.541-14.261-3.606-21.578c-0.008-0.844,0.022-1.75,0.521-2.43&#10;&#9;&#9;&#9;c0.485-0.663,1.31-0.968,2.089-1.227c8.64-2.863,17.779-4.213,26.878-3.969c0.98,0.026,1.985,0.076,2.891,0.455&#10;&#9;&#9;&#9;C771.286,479.742,764.613,499.271,764.08,506.907z" transform="matrix(1, 0, 0, 1, 0, 0)"/><path fill="#79AFA5" d="M761.096,402.862c1.416,0.67,2.94,1.376,3.735,2.726c0.657,1.114,0.696,2.476,0.68,3.769&#10;&#9;&#9;&#9;c-0.072,5.855-0.904,11.7-2.468,17.343c-6.137,22.146-22.866,39.575-39.461,55.472c-7.848-33.351-12.205-67.522-12.979-101.776&#10;&#9;&#9;&#9;c-0.107-4.73-2.211-23.766,3.571-25.29c6.491-1.711,10.155,10.921,12.153,14.623C734.052,384.04,746.386,395.896,761.096,402.862z&#10;&#9;&#9;&#9;" transform="matrix(1, 0, 0, 1, 0, 0)"/><path d="M 729.4650268554688 447.8590087890625 L 772.802978515625 378.34100341796875 L 814.5759887695312 400.2550048828125 L 818 413.2669982910156 L 758.4219970703125 507.7699890136719 L 720.3839721679688 467.5840148925781 Z" fill="#88BBB2" transform="matrix(1, 0, 0, 1, 0, 0)"/><path fill="#608981" d="M742.178,734.996c-1.371,22.449-2.41,46.399,8.887,65.848c-21.264,2.313-42.929,0.879-63.702-4.215&#10;&#9;&#9;&#9;c-0.691-0.17-1.428-0.371-1.891-0.913c-0.488-0.571-0.551-1.38-0.593-2.13c-2.903-52.869-5.648-107.091,10.226-157.604&#10;&#9;&#9;&#9;c1.427-4.54,3.16-9.272,6.833-12.297c4.214-3.471,10.058-3.969,15.505-4.316c6.04-0.385,12.079-0.771,18.119-1.156&#10;&#9;&#9;&#9;c3.217-0.205,10.216-3.285,12.54-1.106c2.509,2.352,0.625,10.718,0.452,13.543c-0.716,11.721-1.433,23.44-2.148,35.16&#10;&#9;&#9;&#9;C744.997,688.872,743.588,711.935,742.178,734.996z" transform="matrix(1, 0, 0, 1, 0, 0)"/><path fill="#79AFA5" d="M707.664,680.206c-2.564,22.819-4.978,45.817-3.123,68.705c1.854,22.888,8.241,45.896,21.809,64.422&#10;&#9;&#9;&#9;c-26.847-5.621-54.563-7.068-81.849-4.273c-3.037-54.724-4.44-110.87,12.707-162.927c4.396-13.346,10.25-26.694,20.45-36.358&#10;&#9;&#9;&#9;c8.192-7.763,42.993-22.408,42.837-0.736c-0.077,10.676-6.071,23.491-7.912,34.224&#10;&#9;&#9;&#9;C710.481,655.51,709.052,667.861,707.664,680.206z" transform="matrix(1, 0, 0, 1, 0, 0)"/><path fill="#608981" d="M695.899,747.426c-1.285,10.279-2.467,20.896,0.402,30.852c1.731,6.007,4.928,11.586,9.234,16.118&#10;&#9;&#9;&#9;c-7.623,1.504-15.476,1.137-23.237,0.763c-9.287-0.448-18.574-0.896-27.861-1.343c-1.994-38.933-3.987-77.864-5.98-116.797&#10;&#9;&#9;&#9;c-0.514-10.039-0.966-20.465,2.871-29.755c5.241-12.692,17.639-21.051,30.391-26.146c5.558-2.221,11.457-3.99,17.431-3.637&#10;&#9;&#9;&#9;c6.021,0.355,14.757,3.718,15.359,10.446c0.761,8.498-3.631,20.003-5.089,28.467c-3.333,19.357-6.38,38.764-9.14,58.211&#10;&#9;&#9;&#9;C698.729,725.533,697.269,736.474,695.899,747.426z" transform="matrix(1, 0, 0, 1, 0, 0)"/><path fill="#7BA89F" d="M560.43,50.058c0.199-4.041,3.723-6.98,6.75-9.665c3.027-2.684,6.068-6.477,4.929-10.359&#10;&#9;&#9;&#9;c0.398,2.865,1.432,6.407,4.297,6.805c1.743,0.243,3.404-0.922,4.452-2.336c1.047-1.415,1.672-3.096,2.625-4.576&#10;&#9;&#9;&#9;c2.075-3.22,5.766-5.337,9.592-5.503c-1.926,3.385-3.886,7.523-2.092,10.981c0.656,1.264,1.746,2.246,2.512,3.446&#10;&#9;&#9;&#9;c1.314,2.057,1.589,4.6,1.635,7.041c0.049,2.62-0.146,5.324-1.301,7.676c-1.155,2.353-3.45,4.293-6.069,4.374&#10;&#9;&#9;&#9;c-0.959,0.03-1.932-0.183-2.871,0.015c-5.331,1.12-9.605,4.11-15.483,2.441C565.106,59.178,560.195,54.829,560.43,50.058z" transform="matrix(1, 0, 0, 1, 0, 0)"/><path fill="#476861" d="M665.362,241.84c-0.404,1.617-4.447,20.213-4.447,20.213h4.447V241.84z" transform="matrix(1, 0, 0, 1, 0, 0)"/><path fill="#476861" d="M670.617,263.265c0.809-1.212,22.638-13.34,22.638-13.34l-18.191,15.766L670.617,263.265z" transform="matrix(1, 0, 0, 1, 0, 0)"/><path d="M 679.9149780273438 267.3080139160156 L 704.1699829101562 263.66900634765625 L 680.7239990234375 270.13800048828125 Z" fill="#476861" transform="matrix(1, 0, 0, 1, 0, 0)"/><path fill="#476861" d="M680.724,274.18c0.809,0.404,26.276,1.617,26.276,1.617l-26.276,2.258V274.18z" transform="matrix(1, 0, 0, 1, 0, 0)"/><path d="M 634.6389770507812 248.30799865722656 L 658.8939819335938 263.2650146484375 L 652.7000122070312 265.6910095214844 Z" fill="#476861" transform="matrix(1, 0, 0, 1, 0, 0)"/><path d="M 616.0430297851562 268.52099609375 L 648.3829956054688 266.90301513671875 L 643.531982421875 271.3500061035156 Z" fill="#476861" transform="matrix(1, 0, 0, 1, 0, 0)"/><path d="M 619.2769775390625 277.010009765625 L 645.5540161132812 273.37200927734375 L 644.3410034179688 278.2229919433594 Z" fill="#476861" transform="matrix(1, 0, 0, 1, 0, 0)"/><path fill="#608981" d="M636.089,301.708c-0.354,0.609-0.725,1.245-0.764,1.948c-0.048,0.867,0.416,1.671,0.877,2.407&#10;&#9;&#9;&#9;c5.262,8.384,12.492,15.729,21.434,19.975c8.942,4.245,20.972,10.243,30.078,6.36c-5.385-11.038-5.904-29.013-6.323-41.287&#10;&#9;&#9;&#9;c-0.132-3.882-0.469-7.979-2.69-11.167c-2.73-3.917-7.75-5.589-12.512-5.932c-6.463-0.466-13.232,1.196-18.171,5.391&#10;&#9;&#9;&#9;C641.501,284.939,640.258,294.522,636.089,301.708z" transform="matrix(1, 0, 0, 1, 0, 0)"/><path fill="#7BA89F" d="M671.604,327.898c-2.614,0.678-5.347-0.324-7.811-1.431c-3.433-1.541-6.792-3.338-9.629-5.81&#10;&#9;&#9;&#9;c-0.876-0.764-1.716-1.61-2.223-2.657c-0.926-1.911-0.614-4.163-0.281-6.26c0.794-5.002,1.588-10.005,2.382-15.008&#10;&#9;&#9;&#9;c0.315-1.987,16.288,1.413,17.786,1.976C671.851,301.321,671.835,327.903,671.604,327.898z" transform="matrix(1, 0, 0, 1, 0, 0)"/><path fill="#638981" d="M665.801,297.965c-4.065-0.173-8.152,0.193-12.125,1.075c-0.638,4.017-1.275,8.034-1.913,12.05&#10;&#9;&#9;&#9;c1.267,0.977,2.715,1.702,4.278,2.015c5.089,1.02,10.83-2.447,14.075-6.171C673.398,303.169,670.604,298.17,665.801,297.965z" transform="matrix(1, 0, 0, 1, 0, 0)"/><path fill="#88BBB2" d="M651.55,298.554c1.69,3.845,4.265,7.718,8.266,8.994c5.316,1.696,11.138-2.066,13.688-7.029&#10;&#9;&#9;&#9;c2.55-4.962,2.641-10.779,2.677-16.358c0.014-2.171,0.028-4.342,0.042-6.513c0.003-0.504,0-1.033-0.24-1.476&#10;&#9;&#9;&#9;c-0.256-0.472-0.739-0.769-1.204-1.038c-4.745-2.737-10.194-4.823-15.611-4.013C645.112,273.223,647.395,289.106,651.55,298.554z" transform="matrix(1, 0, 0, 1, 0, 0)"/><path fill="#72A097" d="M663.285,276.34c5.299,3.812,11.257,6.705,17.53,8.512c0.467-4.037,0.802-8.088,1.004-12.146&#10;&#9;&#9;&#9;c0.041-0.809,0.074-1.631-0.128-2.416c-0.29-1.123-1.037-2.069-1.839-2.907c-4.622-4.826-11.592-7.028-18.261-6.61&#10;&#9;&#9;&#9;s-13.03,3.259-18.4,7.236c-0.585,0.433-1.179,0.901-1.514,1.548c-0.379,0.734-0.376,1.599-0.365,2.425&#10;&#9;&#9;&#9;c0.081,5.764,0.211,11.541,0.186,17.298c-0.001,0.297,0.001,0.611,0.15,0.868c0.422,0.728,1.525,0.449,2.271,0.061&#10;&#9;&#9;&#9;C645.642,289.311,664.854,277.543,663.285,276.34z" transform="matrix(1, 0, 0, 1, 0, 0)"/><path fill="#4B6D67" d="M681.819,272.705c0.008-0.154,0.014-0.308,0.02-0.462c-0.111-0.101-0.222-0.202-0.333-0.301&#10;&#9;&#9;&#9;c-4.701-4.167-10.153-7.991-16.403-8.627c-7.137-0.727-13.958,2.799-20.14,6.438c-1.169,0.688-2.53,1.429-3.648,2.374&#10;&#9;&#9;&#9;c0.03,2.104,0.064,4.21,0.097,6.316c3.568-2.634,7.381-4.932,11.543-6.427c5.533-1.987,11.771-2.459,17.265-0.367&#10;&#9;&#9;&#9;c3.095,1.178,5.836,3.108,8.541,5.019c0.891,0.629,1.782,1.258,2.673,1.888C681.592,276.608,681.722,274.657,681.819,272.705z" transform="matrix(1, 0, 0, 1, 0, 0)"/><path fill="#72A097" d="M652.021,265.992c-0.679,0.308-1.353,0.634-2.021,0.972v6.271c0.665-0.308,1.338-0.597,2.021-0.865&#10;&#9;&#9;&#9;&#9;V265.992z" transform="matrix(1, 0, 0, 1, 0, 0)"/><path fill="#72A097" d="M656.064,271.083v-6.666c-0.678,0.217-1.352,0.457-2.021,0.718v6.513&#10;&#9;&#9;&#9;&#9;C654.709,271.438,655.383,271.249,656.064,271.083z" transform="matrix(1, 0, 0, 1, 0, 0)"/><path fill="#72A097" d="M644.341,270.115c-0.663,0.385-1.359,0.793-2.021,1.249v6.42c0.665-0.474,1.339-0.934,2.021-1.379&#10;&#9;&#9;&#9;&#9;V270.115z" transform="matrix(1, 0, 0, 1, 0, 0)"/><path fill="#72A097" d="M659.702,263.522c-0.678,0.115-1.351,0.26-2.021,0.431v6.79c0.67-0.124,1.345-0.223,2.021-0.297V263.522z&#10;&#9;&#9;&#9;&#9;" transform="matrix(1, 0, 0, 1, 0, 0)"/><path fill="#72A097" d="M648.383,267.811c-0.681,0.368-1.354,0.746-2.021,1.128v6.213c0.665-0.391,1.338-0.764,2.021-1.119&#10;&#9;&#9;&#9;&#9;V267.811z" transform="matrix(1, 0, 0, 1, 0, 0)"/><path fill="#72A097" d="M671.426,272.155v-7.093c-0.664-0.295-1.337-0.562-2.021-0.793v7.096c0.273,0.09,0.546,0.182,0.815,0.285&#10;&#9;&#9;&#9;&#9;C670.628,271.805,671.029,271.975,671.426,272.155z" transform="matrix(1, 0, 0, 1, 0, 0)"/><path fill="#72A097" d="M679.106,276.913v-6.998c-0.66-0.53-1.333-1.046-2.021-1.541v7.122c0.561,0.387,1.119,0.779,1.675,1.171&#10;&#9;&#9;&#9;&#9;C678.875,276.75,678.991,276.831,679.106,276.913z" transform="matrix(1, 0, 0, 1, 0, 0)"/><path fill="#72A097" d="M675.064,267.013c-0.662-0.415-1.335-0.805-2.021-1.167v7.121c0.686,0.372,1.359,0.771,2.021,1.189&#10;&#9;&#9;&#9;&#9;V267.013z" transform="matrix(1, 0, 0, 1, 0, 0)"/><path fill="#72A097" d="M663.745,270.321v-7.094c-0.677-0.019-1.351-0.001-2.021,0.048v7.027&#10;&#9;&#9;&#9;&#9;C662.398,270.281,663.073,270.286,663.745,270.321z" transform="matrix(1, 0, 0, 1, 0, 0)"/><path fill="#72A097" d="M667.383,263.692c-0.664-0.151-1.338-0.263-2.021-0.342v7.117c0.679,0.083,1.354,0.197,2.021,0.345&#10;&#9;&#9;&#9;&#9;V263.692z" transform="matrix(1, 0, 0, 1, 0, 0)"/><path fill="none" stroke="#2E4742" stroke-miterlimit="10" d="M661.822,286.508c0.006,2.764-0.374,5.528-1.124,8.188&#10;&#9;&#9;&#9;c-0.085,0.301-0.175,0.618-0.101,0.921c0.183,0.745,1.147,0.917,1.915,0.938c1.015,0.028,2.03,0.057,3.044,0.085" transform="matrix(1, 0, 0, 1, 0, 0)"/><path fill="none" stroke="#2E4742" stroke-miterlimit="10" d="M659.25,299.262c2.747,1.107,5.99,0.903,8.576-0.54" transform="matrix(1, 0, 0, 1, 0, 0)"/><path fill="#45605B" d="M617.111,265.354c0.435,6.17,0.221,12.766,3.508,18.006c3.269,5.213,9.278,7.91,13.978,11.882&#10;&#9;&#9;&#9;c5.422,4.583,9.098,10.889,14.12,15.907c8.603,8.597,20.505,12.855,30.788,19.348c1.086,0.686,2.203,1.449,2.781,2.597&#10;&#9;&#9;&#9;c0.534,1.061,0.532,2.302,0.491,3.489c-0.655,18.643-8.277,36.505-18.715,51.966S640.42,417.37,627.3,430.631&#10;&#9;&#9;&#9;c-7.141,7.217-14.793,14.736-24.636,17.229c-6.368-11.863-10.871-24.725-13.293-37.97c-1.139-6.227-1.988-12.917-6.106-17.724&#10;&#9;&#9;&#9;c-3.909-4.562-10.695-7.479-11.368-13.448c-0.299-2.651,0.775-5.239,1.741-7.726c1.856-4.778,3.404-9.772,3.439-14.898&#10;&#9;&#9;&#9;c0.036-5.125-1.606-10.442-5.33-13.964c-2.735-2.587-6.789-4.706-6.929-8.469c-0.065-1.739,0.8-3.415,0.724-5.153&#10;&#9;&#9;&#9;c-0.199-4.567-6.238-6.577-7.911-10.831c-0.646-1.642-0.571-3.468-0.465-5.229c0.957-15.913,3.781-32.101,11.733-45.916&#10;&#9;&#9;&#9;c6.432-11.173,16.725-20.809,29.174-24.749C612.268,237.292,616.311,254.002,617.111,265.354z" transform="matrix(1, 0, 0, 1, 0, 0)"/><path fill="#7BA89F" d="M591.252,148.534c-2.543-1.865-6.203-1.463-9.184-0.306c-10.111,3.925-16.003,14.456-19.504,24.722&#10;&#9;&#9;&#9;c-7.63,22.375-7.638,46.507-4.2,69.672c1.643,11.068,4.59,21.598,7.346,32.289c3.079,11.946,4.601,24.38,7.622,36.391&#10;&#9;&#9;&#9;c1.068,4.249,2.322,8.724,5.519,11.719c4.738,4.44,12.4,4.17,18.286,1.428c29.132-13.573,10.84-55.794,6.715-77.826&#10;&#9;&#9;&#9;c-2.898-15.477-5.018-31.1-6.349-46.789c-1.244-14.655-0.046-30.306-2.919-44.689c-0.469-2.348-1.184-4.822-3.016-6.363&#10;&#9;&#9;&#9;C591.464,148.695,591.359,148.612,591.252,148.534z" transform="matrix(1, 0, 0, 1, 0, 0)"/><path fill="#608981" d="M574.966,256.858c-3.971-18.876-3.862-38.342-3.638-57.629c0.035-2.974,0.321-6.433,2.793-8.083&#10;&#9;&#9;&#9;c1.85-1.235,4.266-0.979,6.476-1.228c2.209-0.248,4.751-1.586,4.727-3.81c-3.538-2.185-7.368-4.753-8.396-8.781&#10;&#9;&#9;&#9;c-0.416-1.628-0.317-3.338-0.203-5.014c0.348-5.076,0.826-10.143,1.43-15.195c0.248-2.071,0.355-4.289,0.989-6.25&#10;&#9;&#9;&#9;c0.402-1.245,2.142-1.436,1.257-3.331c-0.573-1.228-1.868-1.933-3.116-2.462c-2.833-1.201-5.866-1.93-8.936-2.15&#10;&#9;&#9;&#9;c-9.766,32.484-14.994,65.938-9.983,99.697c1.643,11.069,4.59,21.598,7.345,32.288c3.079,11.946,4.601,24.381,7.622,36.391&#10;&#9;&#9;&#9;c0.44,1.752,0.922,3.538,1.549,5.248c3.836-2.036,7.437-4.516,10.698-7.383c0.891-0.783,1.787-1.641,2.18-2.76&#10;&#9;&#9;&#9;c0.448-1.276,0.169-2.68-0.131-3.999C584.128,287.036,578.212,272.283,574.966,256.858z" transform="matrix(1, 0, 0, 1, 0, 0)"/><path fill="#79AFA5" d="M682.286,333.094c-0.578-1.147-1.694-1.911-2.781-2.597c-10.283-6.493-22.186-10.751-30.788-19.348&#10;&#9;&#9;&#9;c-5.021-5.018-8.698-11.324-14.12-15.907c-4.7-3.973-10.709-6.669-13.978-11.882c-3.287-5.241-3.073-11.836-3.508-18.006&#10;&#9;&#9;&#9;c-0.581-8.245-2.878-19.311-9.529-23.031c-0.231,3.466-0.247,6.909-0.589,8.582c-2.315,11.301-7.396,21.831-12.434,32.124&#10;&#9;&#9;&#9;c-4.847,9.904-10.48,20.56-20.595,24.948c-5.258,2.281-11.117,2.559-16.744,3.704c-0.017,0.256-0.037,0.512-0.052,0.769&#10;&#9;&#9;&#9;c-0.106,1.762-0.181,3.587,0.465,5.23c1.673,4.253,7.711,6.263,7.911,10.83c0.076,1.739-0.789,3.415-0.724,5.153&#10;&#9;&#9;&#9;c0.14,3.763,4.193,5.882,6.929,8.469c3.723,3.522,5.366,8.839,5.33,13.964c-0.036,5.125-1.583,10.12-3.439,14.898&#10;&#9;&#9;&#9;c-0.966,2.487-2.041,5.075-1.741,7.726c0.673,5.969,7.459,8.886,11.368,13.448c4.119,4.807,4.968,11.497,6.106,17.724&#10;&#9;&#9;&#9;c2.422,13.245,6.925,26.106,13.293,37.969c9.842-2.492,17.495-10.011,24.636-17.228c13.12-13.261,26.323-26.621,36.761-42.082&#10;&#9;&#9;&#9;s18.06-33.323,18.715-51.966C682.818,335.396,682.82,334.154,682.286,333.094z" transform="matrix(1, 0, 0, 1, 0, 0)"/><path fill="#608981" d="M631.397,333.121c-2.645,6.558-5.837,12.895-9.533,18.923c2.381-7.372,4.762-14.743,7.144-22.114&#10;&#9;&#9;&#9;c-4.682,7.612-9.363,15.224-14.044,22.836c4.825-12.932,9.649-25.864,14.474-38.795c-7.93,17.527-16.21,35.263-29.031,49.605&#10;&#9;&#9;&#9;c-3.182,3.56-8.328,7.11-12.293,4.452c4.813-3.365,8.848-7.837,11.701-12.97c-4.961,3.628-10.719,6.162-16.746,7.367&#10;&#9;&#9;&#9;c17.062-12.455,30.258-30.13,37.35-50.028c-5.811,10.512-12.807,20.368-20.813,29.322c2.038-11.226,4.075-22.451,6.113-33.677&#10;&#9;&#9;&#9;c-4.442,7.447-7.253,15.738-11.083,23.518c-3.83,7.78-8.977,15.326-16.558,19.537c6.803-12.052,13.174-24.348,19.097-36.856&#10;&#9;&#9;&#9;c-2.391,3.322-5.948,5.787-9.898,6.86c2.973-2.843,5.643-6.002,7.952-9.408c-2.59,0.91-5.18,1.82-7.77,2.729&#10;&#9;&#9;&#9;c1.477-1.864,2.955-3.728,4.432-5.592c-3.785,2.951-8.167,5.134-12.801,6.379c5.075-1.364,11.377-17.865,13.243-22.331&#10;&#9;&#9;&#9;c1.778-4.255,5.21-11.684,6.065-17.832c-1.251,2.682-2.546,5.339-3.838,7.98c-4.847,9.904-10.48,20.56-20.595,24.948&#10;&#9;&#9;&#9;c-5.258,2.281-11.117,2.559-16.744,3.704c-0.017,0.256-0.037,0.512-0.052,0.769c-0.106,1.762-0.181,3.587,0.465,5.23&#10;&#9;&#9;&#9;c1.673,4.253,7.711,6.263,7.911,10.83c0.076,1.739-0.789,3.415-0.724,5.153c0.14,3.763,4.193,5.882,6.929,8.469&#10;&#9;&#9;&#9;c3.723,3.522,5.366,8.839,5.33,13.964c-0.036,5.125-1.583,10.12-3.439,14.898c-0.966,2.487-2.041,5.075-1.741,7.726&#10;&#9;&#9;&#9;c0.673,5.969,7.459,8.886,11.368,13.448c4.119,4.807,4.968,11.497,6.106,17.724c0.72,3.935,1.627,7.834,2.708,11.685&#10;&#9;&#9;&#9;c8.574-5.778,16.687-12.242,24.224-19.321c3.128-2.938,6.204-6.042,8.214-9.833c2.322-4.38,3.079-9.399,3.677-14.32&#10;&#9;&#9;&#9;C630.012,363.176,630.705,348.14,631.397,333.121z" transform="matrix(1, 0, 0, 1, 0, 0)"/><path fill="#88BBB2" d="M637.299,369.042c-11.292,11.929-22.583,23.858-33.875,35.787c-9.415,9.946-18.906,19.991-25.989,31.712&#10;&#9;&#9;&#9;c-7.083,11.721-11.663,25.412-10.302,39.039c0.152,1.521,0.402,3.1,1.292,4.342c3.221,4.497,11.613,1.318,15.042,5.66&#10;&#9;&#9;&#9;c1.198,1.518,1.408,3.566,1.572,5.493c0.946,11.117,1.668,23.185-4.449,32.516c-2.59,3.951-6.493,7.861-5.766,12.53&#10;&#9;&#9;&#9;c0.477,3.057,2.866,5.398,4.423,8.072c2.659,4.564,2.871,10.1,3.014,15.38c0.688,25.326,0.489,48.689-2.322,73.843&#10;&#9;&#9;&#9;c-3.041,27.205-5.126,54.611-3.817,81.997c0.464,9.705,1.331,19.618-1.246,28.986c-1.466,5.331-4.003,10.295-6.523,15.217&#10;&#9;&#9;&#9;c-6.63,12.947-13.26,25.895-19.89,38.843c27.288,1.598,54.647,1.975,81.969,1.131c8.948-0.276,18.164-0.748,26.272-4.543&#10;&#9;&#9;&#9;c1.166-25.783,4.31-51.478,9.395-76.782c0.963-4.793,2.073-9.744,5.035-13.634c5.53-7.263,17.8-8.25,22.44-15.771&#10;&#9;&#9;&#9;c5.546-8.987-12.662-12.209-15.959-20.684c-1.06-2.726-1.03-5.735-0.985-8.66c0.287-18.672,0.574-37.343,0.86-56.015&#10;&#9;&#9;&#9;c0.284-18.526,0.569-37.063,1.884-55.545c1.697-23.858,5.106-47.557,8.513-71.231c4.517-31.389,9.033-62.779,13.55-94.168&#10;&#9;&#9;&#9;c1.129-7.847,2.258-15.695,3.387-23.542c0.692-4.811,6.607-17.442,1.372-21.053c-1.64-1.131-3.842-1.018-5.647-1.861&#10;&#9;&#9;&#9;c-2.296-1.073-3.657-3.538-5.864-4.782c-1.772-0.999-3.92-1.115-5.744-2.014c-3.429-1.689-5.023-5.72-8.047-8.058&#10;&#9;&#9;&#9;c-0.53-0.41-1.128-0.774-1.794-0.84c-0.582-0.058-1.161,0.119-1.707,0.329c-4.544,1.746-5.937,5.097-8.248,8.999&#10;&#9;&#9;&#9;C660.487,344.346,648.917,356.769,637.299,369.042z" transform="matrix(1, 0, 0, 1, 0, 0)"/><path fill="#608981" d="M713.439,342.04c1.799,2.79,1.944,6.293,2.064,9.61c3.327,91.736,29.058,181.42,34.333,273.065&#10;&#9;&#9;&#9;C719.462,633.885,695.82,649.955,673,672c-13-31-8.221-57.111-8.043-85.96c0.184-29.751,0.373-59.595,4.271-89.09&#10;&#9;&#9;&#9;c2.982-22.562,8.118-44.788,11.491-67.295c2.272-15.159,3.742-30.424,5.21-45.681c1.416-14.707,0.026-33.74,4.592-47.73&#10;&#9;&#9;&#9;c2.285-7,3.658-3.863,10.142-1.144C705.191,336.999,710.534,337.535,713.439,342.04z" transform="matrix(1, 0, 0, 1, 0, 0)"/><path fill="#496862" d="M699.104,688.674c-2.596,1.569-5.961,1.365-8.766,0.211s-5.171-3.143-7.487-5.101&#10;&#9;&#9;&#9;c-2.712-2.292-5.424-4.584-8.136-6.877c-0.853-0.72-1.732-1.477-2.184-2.497c-0.599-1.352-0.342-2.913-0.022-4.356&#10;&#9;&#9;&#9;c1.427-6.437,15.299-39.623,24.546-33.603c3.989,2.596,2.146,17.254,2.15,20.944C699.216,667.821,699.183,678.248,699.104,688.674&#10;&#9;&#9;&#9;z" transform="matrix(1, 0, 0, 1, 0, 0)"/><path fill="#88BBB2" d="M717.439,342.04c1.799,2.79,1.944,6.293,2.064,9.61c3.327,91.736,29.058,181.42,34.333,273.065&#10;&#9;&#9;&#9;c-30.375,9.17-58.507,25.678-81.327,47.722c-3.901-28.583-3.73-57.548-3.553-86.396c0.184-29.751,0.373-59.595,4.271-89.09&#10;&#9;&#9;&#9;c2.982-22.562,8.118-44.788,11.491-67.295c2.272-15.159,3.742-30.424,5.21-45.681c1.416-14.707,0.026-33.74,4.592-47.73&#10;&#9;&#9;&#9;c2.285-7,3.658-3.863,10.142-1.144C709.191,336.999,714.534,337.535,717.439,342.04z" transform="matrix(1, 0, 0, 1, 0, 0)"/><path fill="#608981" d="M630.397,610.424c8.755-13.378,12.99-29.129,17.094-44.581c7.491-28.202,14.982-56.403,22.472-84.605&#10;&#9;&#9;&#9;c-7.355,20.698-14.71,41.397-22.065,62.096c4.042-17.443,4.822-35.638,2.286-53.363c-3.979,40.343-8.955,83.216-34.447,114.737&#10;&#9;&#9;&#9;c-2.967,3.669-6.568,7.352-11.236,8.048c-6.771-23.167-4.866-48.188,1.468-71.478c6.334-23.289,16.918-45.168,27.591-66.815&#10;&#9;&#9;&#9;c-11.919,23.173-23.838,46.346-35.757,69.518c-2.709-4.065-0.842-9.493,1.089-13.982c12.716-29.562,25.431-59.123,38.147-88.684&#10;&#9;&#9;&#9;c-11.267,13.943-22.534,27.887-33.801,41.83c-5.055-8.599,0.454-19.339,5.854-27.727c7.488-11.631,14.975-23.263,22.462-34.894&#10;&#9;&#9;&#9;c-10.759,12.25-21.519,24.499-32.278,36.748c-2.486,2.831-5.954,5.95-9.511,4.708c5.337-22.11,18.139-41.566,30.716-60.518&#10;&#9;&#9;&#9;c7.215-10.872,14.429-21.744,21.644-32.616c3.989-6.01,14.171-16.985,17.665-25.379c-6.896,9.005-14.681,17.326-22.491,25.577&#10;&#9;&#9;&#9;c-11.292,11.929-22.583,23.858-33.875,35.787c-9.415,9.946-18.906,19.991-25.989,31.712&#10;&#9;&#9;&#9;c-7.083,11.721-11.663,25.412-10.302,39.039c0.152,1.521,0.402,3.1,1.292,4.342c3.221,4.497,11.613,1.318,15.042,5.66&#10;&#9;&#9;&#9;c1.198,1.518,1.408,3.566,1.572,5.493c0.946,11.117,1.668,23.185-4.449,32.516c-2.59,3.951-6.493,7.861-5.766,12.53&#10;&#9;&#9;&#9;c0.477,3.057,2.866,5.398,4.423,8.072c2.659,4.564,2.871,10.1,3.014,15.38c0.688,25.326,0.489,48.689-2.322,73.843&#10;&#9;&#9;&#9;c-3.041,27.205-5.126,54.611-3.817,81.997c0.464,9.705,1.331,19.618-1.246,28.986c-1.466,5.331-4.003,10.295-6.523,15.217&#10;&#9;&#9;&#9;c-6.63,12.947-13.26,25.895-19.89,38.843c15.448,0.904,30.92,1.403,46.395,1.525c52.034-61.281,54.979-147.21,67.503-223.407&#10;&#9;&#9;&#9;c-10.898,30.703-21.796,61.406-32.695,92.109c-1.053-27.413,15.596-52.832,16.546-80.249&#10;&#9;&#9;&#9;c-7.575,21.881-20.003,42.067-36.129,58.685c-2.903,2.991-8.993,5.241-10.203,1.252c-0.581-1.913,0.763-3.832,2.06-5.355&#10;&#9;&#9;&#9;C611.3,632.022,622.489,622.507,630.397,610.424z" transform="matrix(1, 0, 0, 1, 0, 0)"/><path fill="#608981" d="M687.576,629.943c-1.827-28.064-2.032-56.234-0.621-84.322c1.533-30.494,4.787-63.508,12.626-93.076&#10;&#9;&#9;&#9;c-16.552,21.881-16.864,57.081-19.543,83.625c-4.438,43.975-5.581,88.28-3.435,132.427c4.268-3.895,8.706-7.6,13.295-11.108&#10;&#9;&#9;&#9;C688.952,648.322,688.174,639.139,687.576,629.943z" transform="matrix(1, 0, 0, 1, 0, 0)"/><path fill="#608981" d="M707.033,439.343c6.745,16.452,4.647,35.172,8.972,52.419c-0.512-14.798-1.023-29.595-1.534-44.392&#10;&#9;&#9;&#9;c-0.093-2.676-0.193-5.4-1.084-7.926c-1.266-3.591-4.021-6.486-5.423-10.026c-1.402-3.54-0.715-8.544,2.885-9.784&#10;&#9;&#9;&#9;c6.729,11.524,8.267,25.238,12.069,38.029c2.347,7.891,6.086,15.939,11.593,21.893c-2.019-12.275-3.988-24.554-5.814-36.845&#10;&#9;&#9;&#9;c-0.662-1.089-1.272-2.208-1.824-3.343c-3.107-6.383-4.803-13.349-7.354-19.974c-0.972-2.525-2.145-5.103-4.25-6.801&#10;&#9;&#9;&#9;c-2.105-1.699-5.397-2.218-7.474-0.482c4.02-15.207,8.08-34.378,5.361-50.091c-1.916,5.719-1.896,12.54-2.828,18.534&#10;&#9;&#9;&#9;c-1.875,12.056-4.754,23.993-7.222,35.938c-0.578,2.804-1.161,5.647-0.98,8.505C702.445,430.069,705.105,434.641,707.033,439.343z&#10;&#9;&#9;&#9;" transform="matrix(1, 0, 0, 1, 0, 0)"/><path d="M 567.359985 57.167 H 585.849985 V 77.711 H 567.359985 V 57.167 Z" fill="#39544E" transform="matrix(1, 0, 0, 1, 0, 0)"/><path d="M 585.8499755859375 181.11700439453125 L 568.72998046875 181.11700439453125 L 563.93701171875 92.09200286865234 L 591.3289794921875 92.09200286865234 Z" fill="#476861" transform="matrix(1, 0, 0, 1, 0, 0)"/><path fill="#39544E" d="M584.138,185.226h-14.381c-2.458,0-4.451-1.993-4.451-4.451l0,0c0-2.458,1.993-4.451,4.451-4.451h14.381&#10;&#9;&#9;&#9;c2.458,0,4.452,1.993,4.452,4.451l0,0C588.59,183.233,586.597,185.226,584.138,185.226z" transform="matrix(1, 0, 0, 1, 0, 0)"/><path fill="#476861" d="M600.916,86.613H550.24V75.678c0-3.038,2.462-5.5,5.5-5.5h39.676c3.038,0,5.5,2.462,5.5,5.5V86.613z" transform="matrix(1, 0, 0, 1, 0, 0)"/><path fill="#39544E" d="M600.916,93.461h-48.621c-2.647,0-4.794-2.146-4.794-4.793l0,0c0-2.647,2.146-4.793,4.794-4.793h48.621&#10;&#9;&#9;&#9;c2.647,0,4.794,2.146,4.794,4.793l0,0C605.71,91.315,603.563,93.461,600.916,93.461z" transform="matrix(1, 0, 0, 1, 0, 0)"/><path d="M 758.4219970703125 507.7699890136719 L 818 413.2669982910156 L 814.8759765625 401.39599609375 L 751.8579711914062 500.8370056152344 Z" fill="#608981" transform="matrix(1, 0, 0, 1, 0, 0)"/><path fill="#7BA89F" d="M772.41,459.715c-1.001-1.833-2.191-3.757-1.979-5.834c0.212-2.077,2.749-3.936,4.4-2.658&#10;&#9;&#9;&#9;c-1.28-2.753-2.302-5.626-3.044-8.57c-0.166-0.656-0.278-1.457,0.219-1.916c0.386-0.355,0.974-0.34,1.497-0.303&#10;&#9;&#9;&#9;c1.873,0.132,3.746,0.263,5.619,0.395c-1.452-2.044-2.085-4.654-1.729-7.137c3.857-1.387,8.243,0.189,11.432,2.766&#10;&#9;&#9;&#9;c3.189,2.577,5.503,6.047,8.121,9.202c0.594,0.715,1.338,1.477,2.267,1.441c1.55-0.06,2.071-2.157,1.755-3.675&#10;&#9;&#9;&#9;c-1.545-7.415-11.49-11.428-11.589-19.001c11.293,3.434,20.425,13.2,23.095,24.697c0.672,2.893,0.257,6.922-2.659,7.486&#10;&#9;&#9;&#9;c-1.15,0.222-2.345-0.234-3.501-0.047c-1.409,0.228-2.489,1.353-3.344,2.496c-2.877,3.847-4.46,8.574-7.564,12.24&#10;&#9;&#9;&#9;c-2.573,3.04-11.023,9.565-15.18,7.731C775.497,476.941,774.828,464.142,772.41,459.715z" transform="matrix(1, 0, 0, 1, 0, 0)"/><path d="M 548.185974 795.388977 H 753.627975 V 822.781977 H 548.185974 V 795.388977 Z" fill="#88BBB2" transform="matrix(1, 0, 0, 1, 0, 0)"/><path d="M 548.185974 795.388977 H 570.099974 V 822.781977 H 548.185974 V 795.388977 Z" fill="#608981" transform="matrix(1, 0, 0, 1, 0, 0)"/><path d="M 542.708008 822.781006 H 762.531006 V 832.368006 H 542.708008 V 822.781006 Z" fill="#B5573B" transform="matrix(1, 0, 0, 1, 0, 0)"/><path d="M 542.708008 832.367981 H 762.531006 V 894.00098 H 542.708008 V 832.367981 Z" fill="#D77045" transform="matrix(1, 0, 0, 1, 0, 0)"/><path d="M 644.744019 868.663025 H 670.082018 V 894.001024 H 644.744019 V 868.663025 Z" fill="#7C3727" transform="matrix(1, 0, 0, 1, 0, 0)"/><path d="M 636.526001 860.445007 H 648.168001 V 894.001007 H 636.526001 V 860.445007 Z" fill="#B5573B" transform="matrix(1, 0, 0, 1, 0, 0)"/><path d="M 665.288025 860.445007 H 676.930025 V 894.001007 H 665.288025 V 860.445007 Z" fill="#B5573B" transform="matrix(1, 0, 0, 1, 0, 0)"/><path d="M 516 889.893005 H 794.71701 V 922.764004 H 516 V 889.893005 Z" fill="#B5573B" transform="matrix(1, 0, 0, 1, 0, 0)"/><path d="M 516 906.328003 H 794.71701 V 922.764004 H 516 V 906.328003 Z" fill="#D77045" transform="matrix(1, 0, 0, 1, 0, 0)"/><path d="M 516 880.98999 H 526.272 V 906.32799 H 516 V 880.98999 Z" fill="#B5573B" transform="matrix(1, 0, 0, 1, 0, 0)"/><path d="M 570.099976 880.98999 H 580.371976 V 906.32799 H 570.099976 V 880.98999 Z" fill="#B5573B" transform="matrix(1, 0, 0, 1, 0, 0)"/><path d="M 624.198975 880.98999 H 634.470975 V 906.32799 H 624.198975 V 880.98999 Z" fill="#B5573B" transform="matrix(1, 0, 0, 1, 0, 0)"/><path d="M 678.299011 880.98999 H 688.571012 V 906.32799 H 678.299011 V 880.98999 Z" fill="#B5573B" transform="matrix(1, 0, 0, 1, 0, 0)"/><path d="M 732.398987 880.98999 H 742.669987 V 906.32799 H 732.398987 V 880.98999 Z" fill="#B5573B" transform="matrix(1, 0, 0, 1, 0, 0)"/><path d="M 784.44397 880.98999 H 794.71597 V 906.32799 H 784.44397 V 880.98999 Z" fill="#B5573B" transform="matrix(1, 0, 0, 1, 0, 0)"/><path d="M 551.609985 823.124023 L 551.609985 832.710999" fill="none" stroke="#D77045" stroke-miterlimit="10" transform="matrix(1, 0, 0, 1, 0, 0)"/><path d="M 565.30603 823.124023 L 565.30603 832.710999" fill="none" stroke="#D77045" stroke-miterlimit="10" transform="matrix(1, 0, 0, 1, 0, 0)"/><path d="M 579.002014 823.124023 L 579.002014 832.710999" fill="none" stroke="#D77045" stroke-miterlimit="10" transform="matrix(1, 0, 0, 1, 0, 0)"/><path d="M 592.697998 823.124023 L 592.697998 832.710999" fill="none" stroke="#D77045" stroke-miterlimit="10" transform="matrix(1, 0, 0, 1, 0, 0)"/><path d="M 606.39502 823.124023 L 606.39502 832.710999" fill="none" stroke="#D77045" stroke-miterlimit="10" transform="matrix(1, 0, 0, 1, 0, 0)"/><path d="M 620.091003 823.124023 L 620.091003 832.710999" fill="none" stroke="#D77045" stroke-miterlimit="10" transform="matrix(1, 0, 0, 1, 0, 0)"/><path d="M 633.786987 823.124023 L 633.786987 832.710999" fill="none" stroke="#D77045" stroke-miterlimit="10" transform="matrix(1, 0, 0, 1, 0, 0)"/><path d="M 647.482971 823.124023 L 647.482971 832.710999" fill="none" stroke="#D77045" stroke-miterlimit="10" transform="matrix(1, 0, 0, 1, 0, 0)"/><path d="M 661.179016 823.124023 L 661.179016 832.710999" fill="none" stroke="#D77045" stroke-miterlimit="10" transform="matrix(1, 0, 0, 1, 0, 0)"/><path d="M 674.875 823.124023 L 674.875 832.710999" fill="none" stroke="#D77045" stroke-miterlimit="10" transform="matrix(1, 0, 0, 1, 0, 0)"/><path d="M 688.570984 823.124023 L 688.570984 832.710999" fill="none" stroke="#D77045" stroke-miterlimit="10" transform="matrix(1, 0, 0, 1, 0, 0)"/><path d="M 702.268005 823.124023 L 702.268005 832.710999" fill="none" stroke="#D77045" stroke-miterlimit="10" transform="matrix(1, 0, 0, 1, 0, 0)"/><path d="M 715.963989 823.124023 L 715.963989 832.710999" fill="none" stroke="#D77045" stroke-miterlimit="10" transform="matrix(1, 0, 0, 1, 0, 0)"/><path d="M 729.659973 823.124023 L 729.659973 832.710999" fill="none" stroke="#D77045" stroke-miterlimit="10" transform="matrix(1, 0, 0, 1, 0, 0)"/><path d="M 743.356018 823.124023 L 743.356018 832.710999" fill="none" stroke="#D77045" stroke-miterlimit="10" transform="matrix(1, 0, 0, 1, 0, 0)"/><path d="M 756.367004 823.124023 L 756.367004 832.710999" fill="none" stroke="#D77045" stroke-miterlimit="10" transform="matrix(1, 0, 0, 1, 0, 0)"/><path fill="#7BA89F" d="M597.044,119.037c0.37-2.107,0.774-4.304,0.167-6.355c-0.408-1.379-1.246-2.584-2.089-3.75&#10;&#9;&#9;&#9;c-3.311-4.577-6.903-8.95-10.751-13.086c-3.51,6.684,0.485,14.594,2.501,21.869c0.211,0.763,0.401,1.565,0.236,2.34&#10;&#9;&#9;&#9;c-0.236,1.103-1.135,1.921-1.96,2.69c-3.659,3.411-6.875,8.222-7.902,13.214c-0.788,3.833,0.094,7.84,1.604,11.45&#10;&#9;&#9;&#9;c2.94,7.032,8.805,13.286,16.298,14.682c-0.01-3.976-0.704-7.807-0.704-11.789C594.367,139.831,595.235,129.351,597.044,119.037z" transform="matrix(1, 0, 0, 1, 0, 0)"/><path fill="#7BA89F" d="M568.453,107.894c1.042-2.656-0.686-5.591-2.703-7.609c-2.017-2.018-4.489-3.797-5.473-6.475&#10;&#9;&#9;&#9;c-0.769-0.094-1.257,0.792-1.462,1.538c-0.874,3.186-0.634,6.816,1.302,9.493c1.937,2.676,5.78,4.041,8.743,2.581&#10;&#9;&#9;&#9;c-0.234,0.331-0.467,0.662-0.701,0.993" transform="matrix(1, 0, 0, 1, 0, 0)"/><path fill="#7BA89F" d="M577.5,114.675c0.579,0.581,1.103,1.42,0.791,2.179c-0.278,0.677-1.079,0.945-1.787,1.133&#10;&#9;&#9;&#9;c-2.629,0.699-5.263,1.378-7.902,2.039c2.661,1.258,5.695,1.447,8.485,2.383s5.579,3.056,5.757,5.993&#10;&#9;&#9;&#9;c0.032,0.532-0.047,1.116-0.428,1.489c-0.427,0.417-1.09,0.442-1.688,0.442c-2.957-0.001-5.914-0.002-8.871-0.004&#10;&#9;&#9;&#9;c3.52-0.105,7.042,1.669,9.052,4.56c0.285,0.409,0.548,0.863,0.565,1.362c0.033,0.988-0.882,1.731-1.761,2.186&#10;&#9;&#9;&#9;c-3.624,1.871-7.971,1.679-11.964,0.852c-1.521-0.315-3.12-0.771-4.151-1.933c-0.929-1.046-1.24-2.488-1.517-3.859&#10;&#9;&#9;&#9;c-0.922-4.564-4.701-15.612-1.933-19.842C563.157,109.054,574.203,111.365,577.5,114.675z" transform="matrix(1, 0, 0, 1, 0, 0)"/><path d="M 346.5 914.5 H 1084.5 V 1093.5 H 346.5 V 914.5 Z" clip-path="url(#SVGID_2_)" fill="#B5573B" transform="matrix(1, 0, 0, 1, 0, 0)"/><linearGradient id="SVGID_11_" gradientUnits="userSpaceOnUse" x1="715.5" y1="955.0127" x2="715.5" y2="1033.3685">
		<stop offset="0" style="stop-color:#006094;stop-opacity:0"/>
		<stop offset="1" style="stop-color:#006094"/>
	</linearGradient><path d="M 346.5 914.5 H 1084.5 V 1093.5 H 346.5 V 914.5 Z" clip-path="url(#SVGID_2_)" fill="url(#SVGID_11_)" transform="matrix(1, 0, 0, 1, 0, 0)"/>
</svg>