<svg height="512" viewBox="0 0 58 58" width="512" xmlns="http://www.w3.org/2000/svg"><g id="017---Statue-of-Liberty" fill="none" transform="translate(-1)"><path id="Shape" d="m57 46.29-2.59.54-1.41-2.83 2.54-2.54c.2823581-.2793402.3726314-.6993069.23-1.07-4.29-11.23-4-10.31-3.89-10.31.2950369-.0087682.571129-.1474311.7543401-.3788557.1832112-.2314246.2548236-.5319673.1956599-.8211443l-.75-3.82 5.92-.91c.5768864-.0762427 1.0080132-.5680971 1.0080132-1.15s-.4311268-1.0737573-1.0080132-1.15l-6.2-1c-.0247473-.1583712-.0581304-.3152718-.1-.47l6.79-5.35c.4583943-.3519225.5878307-.9875814.303551-1.4907313s-.8955565-.7203059-1.433551-.5092687c-7.79 3-7.79 3-7.79 2.9l4.43-11.26c.2398253-.54264549.0315449-1.17879334-.4827726-1.47452592s-1.1688879-.15572388-1.5172274.32452592l-7.41 9.24c-.8647377-.2702103-1.7514486-.4642829-2.65-.58l-1.73-11.18c-.0916325-.56672795-.580912-.98325151-1.155-.98325151s-1.0633675.41652356-1.155.98325151l-1.72 11.18c-.8981596.1179671-1.7846784.3119976-2.65.58l-7.4-9.24c-.363187-.44019336-.9909648-.55414604-1.4856903-.26967885-.4947256.2844672-.7120469.88435189-.5143097 1.41967885 4.54 12.18 4.45 11.27 4.35 11.33l-7.85-3c-.5379945-.2110372-1.1492713.0061188-1.433551.5092687s-.1548433 1.1388088.303551 1.4907313l6.88 5.42c0 .13-.06.26-.08.38-6.75 1-6.58.93-6.92 1.27l-1.38-4.07c-2.33-15.14-2-12-2-16 0-1.1045695-.8954305-2-2-2h-9.53c-.60320614.00162903-1.17345614.27541865-1.55193194.74511683-.3784758.46969817-.52474401 1.08512601-.39806806 1.67488317 3 14.09 2.23 9.38 3.39 19.76-5.14 10.28-4.91 9.63-4.91 10.29v8.92c0 .79.32 1.09 1.62 3 .46.68.37.48.41.91 1 11.58.8 11 1 11.4.28502827.7637562 1.00508629 1.2780834 1.82 1.3h47.52c.3823951.0007653.7317466-.216609.9-.56 1.33-2.79.43-.92 4.39-9 .2660238-.5174332.2088361-1.1420282-.1467288-1.6025489-.3555649-.4605208-.9453638-.6738904-1.5132712-.5474511zm-31-21.21-.74 3.81c-.0554334.2843765.015195.5788165.1936021.8071009.1784071.2282843.4470538.3679705.7363979.3828991l-1.76 4.58-1.05-1.21c-.52-.6-.27-.11-3.34-9.29z" fill="#81ccb8"/><path id="Shape" d="m52 25c-.8909769-1.2990005-2.0677557-2.3765741-3.44-3.15-4.56-2.63-11.79-2.85-16.56-1.14-2.364785.7607779-4.4203014 2.2655843-5.86 4.29-.1593739-1.3733699-.1054028-2.7631263.16-4.12.3142591-1.7904543 1.0820019-3.470537 2.23-4.88 2.54-3 6.52-4 10.52-4 7.77 0 11.58 3.59 12.66 8.43.3521816 1.4963036.4502154 3.041181.29 4.57z" fill="#56595e"/><g fill="#26b99a"><path id="Shape" d="m41.92 12.18c-1.9058268-.2396874-3.8341732-.2396874-5.74 0l1.72-11.18c.0916325-.56672795.580912-.98325151 1.155-.98325151s1.0633675.41652356 1.155.98325151z"/><path id="Shape" d="m54.05 4.25c0 .3.29-.53-4.47 11.73-1.3145923-1.5407111-3.0534747-2.6605513-5-3.22l7.42-9.24c.3113637-.37256126.8218152-.51178618 1.27922-.34890545.4574048.16288072.7649717.59340001.77078 1.07890545z"/><path id="Shape" d="m33.53 12.76c-1.9472672.5578128-3.6865901 1.6779367-5 3.22l-4.4-11.31c-.1977372-.53532696.0195841-1.13521165.5143097-1.41967885.4947255-.28446719 1.1225033-.17051451 1.4856903.26967885z"/><path id="Shape" d="m28.48 16c-1.0423865 1.2999679-1.762031 2.8283557-2.1 4.46l-6.88-5.38c-.4583943-.3519225-.5878307-.9875814-.303551-1.4907313s.8955565-.7203059 1.433551-.5092687z"/><path id="Shape" d="m58.5 15.08-6.79 5.35c-.3410311-1.6234516-1.0643804-3.1421424-2.11-4.43l7.77-2.93c.5441089-.2311357 1.1749968-.0161172 1.4647013.4991978.2897044.515315.1455392 1.1660599-.3347013 1.5108022z"/><path id="Shape" d="m58 24.15c-8.09 1.26-5.28.86-6 .86.1578584-1.3700946.1038932-2.756324-.16-4.11l6.2 1c.5136473.1385241.8672271.6086903.8577709 1.1406048-.0094563.5319146-.3795244.9892159-.8977709 1.1093952z"/><path id="Shape" d="m18 18-8 10.16c-.49985769.6373762-1.33480341.9103184-2.11462562.6912672s-1.35051857-.8868367-1.44537438-1.6912672c-1.83-16.57-.82-10.32-3.92-24.74-.12667595-.58975716.01959226-1.205185.39806806-1.67488317.3784758-.46969818.9487258-.7434878 1.55193194-.74511683h9.53c1.1045695 0 2 .8954305 2 2 0 4-.31 1 2 16z"/><path id="Shape" d="m58.66 48.42-3.38 6.94-7.94-7.06 9.67-2c.5580699-.113169 1.1320973.0994148 1.4818395.5487806.3497423.4493657.4148834 1.0580167.1681605 1.5712194z"/></g><path id="Shape" d="m36.47 48c-.2907122.0025296-.5681337-.12158-.76-.34l-3.47-4c-.2357953-.2715218-.3088239-.6482137-.1915768-.9881793.1172472-.3399656.4069576-.5915562.76-.66.3530425-.0684438.7157815.0566575.9515768.3281793l3.47 4c.2602763.296237.3221586.7177717.1580058 1.0763159s-.523686.5871417-.9180058.5836841z" fill="#33907c"/><path id="Shape" d="m15.68 33.73c-13.3 12.27-12.43 11.52-12.68 11.61 0-.45.13-.11-1-1.75l12.32-11.32c.2553099-.2728317.6414289-.380564 1.0011101-.279323.3596811.101241.6329134.3945639.7084228.7605128.0755095.3659489-.0593022.7434671-.3495329.9788102z" fill="#33907c"/><path id="Shape" d="m15.83 39.55-11.17 16.76c-.14326264.2315846-.38082816.3887433-.65.43-.16-.31-.14-.45-.3-2.59l10.46-15.7c.1793781-.3344065.5325821-.5384678.9118826-.5268341.3793006.0116337.7193347.2369575.8778815.5817287.1585468.3447711.1082846.749577-.1297641 1.0451054z" fill="#33907c"/><path id="Shape" d="m23.77 42.64-12.65 15.36h-2.3c0-.52-1 .75 13.41-16.64.22865-.2750945.5866924-.407309.9392563-.3468396.3525638.0604695.6460861.3044361.77.64.1239138.335564.0593937.7117451-.1692563.9868396z" fill="#33907c"/><path id="Shape" d="m27.88 44.47-7.16 13.53h-2.13c0-.36-.6.86 7.53-14.47.278857-.4456178.855124-.5992542 1.3188108-.3516033.4636869.247651.6564687.8120293.4411892 1.2916033z" fill="#33907c"/><path id="Shape" d="m39 19.58c-.41 5.67-7.25 6.18-12.9 5.43 0-.15 1.76-2.8 5.86-4.3 2.2624408-.7858104 4.6452828-1.1682836 7.04-1.13z" fill="#26b99a"/><path id="Shape" d="m26.14 25c-.64 0 1.78.37-6.09-.85l-.67-2c.34-.34.17-.23 6.92-1.27-.2630327 1.3571488-.3169896 2.7465397-.16 4.12z" fill="#26b99a"/><path id="Shape" d="m33.19 25c-.18 3-2.11 5.17-7 5-.2893441-.0149286-.5579908-.1546148-.7363979-.3828991-.1784071-.2282844-.2490355-.5227244-.1936021-.8071009.74-3.53.74-3.69.74-3.81 2.3837002.3525694 4.8062998.3525694 7.19 0z" fill="#14a085"/><path id="Shape" d="m52 25c-2.340324.3499451-4.719676.3499451-7.06 0-4.73-.85-5.72-3.66-5.85-5.45 3.6039133-.1080211 7.158339.8597853 10.21 2.78 1.0796459.6878497 2.0001306 1.5981067 2.7 2.67z" fill="#26b99a"/><path id="Shape" d="m52.83 28.88c.0608366.2977192-.016999.6069489-.2115328.8403894-.1945337.2334404-.4846581.3657628-.7884672.3596106-4.73.06-6.71-2-6.89-5 2.3744919.3409231 4.7855081.3409231 7.16 0-.01.01.21 1.14.73 3.8z" fill="#14a085"/><path id="Shape" d="m46.88 48.4-1.52.32c-.8759422.1827916-1.7878798.0665988-2.59-.33l-8.57-4.29c-.31-.13-.35-.1-1.67-.1l-1-1.11.47-5.06c1.48 2.7 3.71 4.84 7.07 5.17 3.36-.33 5.58-2.47 7.06-5.16z" fill="#33907c"/><path id="Shape" d="m54.42 46.83-7.54 1.57-.77-10.56c.6728483-1.2487732 1.2092736-2.566368 1.6-3.93l.29.09z" fill="#14a085"/><path id="Shape" d="m55.54 41.46-2.54 2.54-5-10-.29-.09c.4003129-1.367673.7076807-2.7608512.92-4.17 1.0340011.2696789 2.102327.3842628 3.17.34l4 10.31c.1351879.3765638.0329138.7974609-.26 1.07z" fill="#26b99a"/><path id="Shape" d="m30.26 33.47-2.5 5-3.32-3.83 1.76-4.58c1.1008776.0511133 2.2031862-.0634998 3.27-.34.1892959 1.2644593.4530883 2.5166384.79 3.75z" fill="#26b99a"/><path id="Shape" d="m32 37.83-.41 5.06-3.81-4.4 2.5-5c.4035902 1.5083071.980781 2.9647071 1.72 4.34z" fill="#14a085"/><path id="Shape" d="m36 31h-2c-.5522847 0-1-.4477153-1-1s.4477153-1 1-1h2c.5522847 0 1 .4477153 1 1s-.4477153 1-1 1z" fill="#33907c"/><path id="Shape" d="m44 31h-2c-.5522847 0-1-.4477153-1-1s.4477153-1 1-1h2c.5522847 0 1 .4477153 1 1s-.4477153 1-1 1z" fill="#33907c"/><path id="Shape" d="m40 39h-2c-.5522847 0-1-.4477153-1-1s.4477153-1 1-1h2c.5522847 0 1 .4477153 1 1s-.4477153 1-1 1z" fill="#33907c"/><path id="Shape" d="m39.28 36c-.312404.0419729-.6293103-.0328028-.89-.21-.8189728-.4336201-1.2328133-1.373038-1-2.27l.61-2.76c.0741827-.3589226.3387703-.648506.6895571-.7547.3507867-.1061941.7315611-.0119818.9923583.245532s.359826.637064.2580846.989168l-.66 2.76c.5522847 0 1 .4477153 1 1s-.4477153 1-1 1z" fill="#33907c"/></g></svg>