<?xml version="1.0" encoding="iso-8859-1"?>
<!-- Generator: Adobe Illustrator 19.0.0, SVG Export Plug-In . SVG Version: 6.00 Build 0)  -->
<svg version="1.1" id="Capa_1" xmlns="http://www.w3.org/2000/svg" xmlns:xlink="http://www.w3.org/1999/xlink" x="0px" y="0px"
	 viewBox="0 0 512 512" style="enable-background:new 0 0 512 512;" xml:space="preserve">
<path style="fill:#FFCE6E;" d="M124.442,53.059c-4.238-22.004-20.615-39.821-39.703-50.929c-4.881-2.84-10.947-2.84-15.828,0
	C49.824,13.239,33.447,31.057,29.208,53.059c-5.561,28.867,9.521,56.758,25.643,79.543h43.948
	C114.921,109.817,130.003,81.926,124.442,53.059z"/>
<g>
	<path style="fill:#FFAC55;" d="M49.812,53.059c4.061-21.08,19.263-38.312,37.315-49.49c-0.791-0.49-1.586-0.972-2.388-1.439
		c-4.881-2.84-10.947-2.84-15.828,0C49.825,13.239,33.448,31.057,29.209,53.06c-5.561,28.867,9.521,56.758,25.643,79.543h20.604
		C59.332,109.817,44.251,81.926,49.812,53.059z"/>
	<path style="fill:#FFAC55;" d="M71.01,134.603c-10.703-17.779-14.643-31.925-12.343-43.867c1.763-9.148,8.368-18.45,18.157-25.894
		c9.789,7.445,16.395,16.747,18.158,25.894c2.3,11.943-1.641,26.089-12.344,43.867H71.01z"/>
</g>
<path style="fill:#2FC8B4;" d="M134.037,110.007H19.613c-4.855,0-8.792,3.936-8.792,8.792v15.609c0,4.855,3.936,8.792,8.792,8.792
	h114.423c4.855,0,8.792-3.936,8.792-8.792v-15.609C142.828,113.943,138.892,110.007,134.037,110.007z"/>
<path style="fill:#00AE95;" d="M41.728,134.407v-15.609c0-4.855,3.936-8.792,8.792-8.792H19.615c-4.855,0-8.792,3.936-8.792,8.792
	v15.609c0,4.855,3.936,8.792,8.792,8.792H50.52C45.664,143.199,41.728,139.263,41.728,134.407z"/>
<rect x="45.493" y="164.746" style="fill:#35E0CA;" width="62.669" height="166.869"/>
<path style="fill:#2FC8B4;" d="M416.853,415.637c73.683,0,84.324,96.363,84.324,96.363h-412.1
	c-36.543-36.543-32.177-109.821-32.177-109.821l36.358-35.554l50.544,5.594l28.36-14.712l106.796,50.368L416.853,415.637z"/>
<path style="fill:#00AE95;" d="M87.849,374.516l7.799-7.626l-2.388-0.265l-36.358,35.554c0,0-4.366,73.279,32.177,109.821h39.051
	C82.382,466.254,87.849,374.516,87.849,374.516z"/>
<g>
	<path style="fill:#2FC8B4;" d="M304.05,46.261c-2.38-5.672-10.443-5.672-12.824,0c-6.061,14.445-14.231,45.583-14.231,108.485
		h41.286C318.282,91.845,310.11,60.706,304.05,46.261z"/>
	<path style="fill:#2FC8B4;" d="M406.449,88.38c-0.071-6.151-7.542-9.185-11.881-4.825c-11.05,11.103-30.337,36.879-54.004,95.158
		l38.252,15.534C402.483,135.968,406.629,104.044,406.449,88.38z"/>
	<path style="fill:#2FC8B4;" d="M490.208,176.053c3.621-4.973-0.553-11.872-6.638-10.971
		c-15.496,2.292-46.367,11.422-100.184,43.985l21.373,35.323C458.576,211.827,480.987,188.717,490.208,176.053z"/>
	<path style="fill:#2FC8B4;" d="M188.828,88.38c0.071-6.151,7.542-9.185,11.881-4.825c11.05,11.103,30.337,36.879,54.004,95.158
		l-38.252,15.534C192.793,135.968,188.648,104.044,188.828,88.38z"/>
	<path style="fill:#2FC8B4;" d="M105.068,176.053c-3.621-4.973,0.553-11.872,6.638-10.971
		c15.496,2.292,46.367,11.422,100.184,43.985l-21.373,35.323C136.701,211.827,114.289,188.717,105.068,176.053z"/>
	<path style="fill:#2FC8B4;" d="M125.436,286.475l-86.902,29.959c-11.363,3.918-17.399,16.304-13.481,27.667
		c3.918,11.363,16.304,17.399,27.667,13.481l40.54,9.043l36.358-35.554l10.004-3.449c11.363-3.918,17.399-16.304,13.481-27.667
		C149.186,288.594,136.799,282.558,125.436,286.475z"/>
</g>
<path style="fill:#00AE95;" d="M129.617,331.071L42.715,361.03c-11.363,3.918-17.399,16.304-13.481,27.667
	c3.918,11.363,16.304,17.399,27.667,13.481l86.902-29.959c11.363-3.918,17.399-16.304,13.481-27.667
	C153.367,333.19,140.98,327.154,129.617,331.071z"/>
<path style="fill:#35E0CA;" d="M467.127,313.5l-111.67-83.151l-57.82-23.247l-52.09,23.247L128.148,313.5l-0.01-0.01
	c5.313,82.166,79.177,147.289,169.5,147.289s164.187-65.123,169.5-147.289L467.127,313.5z"/>
<g>
	<path style="fill:#00AE95;" d="M404.759,244.39c28-16.941,47.484-31.319,61.046-43.003c-6.059-8.644-12.913-16.872-20.543-24.598
		c-16.007,6.672-36.358,16.837-61.877,32.278L404.759,244.39z"/>
	<path style="fill:#00AE95;" d="M364.587,126.945c-7.297,13.493-15.365,30.448-24.024,51.768l38.252,15.535
		c8.523-20.988,14.504-38.541,18.674-53.164C386.986,135.437,375.983,130.703,364.587,126.945z"/>
	<path style="fill:#00AE95;" d="M278.108,117.168c-0.702,11.055-1.113,23.517-1.113,37.578h41.286c0-14.06-0.41-26.523-1.113-37.578
		c-6.452-0.58-12.968-0.876-19.53-0.876C291.075,116.293,284.56,116.588,278.108,117.168z"/>
	<path style="fill:#00AE95;" d="M216.46,194.248l38.252-15.535c-8.659-21.321-16.727-38.275-24.024-51.769
		c-11.396,3.758-22.398,8.493-32.902,14.139C201.957,155.706,207.938,173.26,216.46,194.248z"/>
	<path style="fill:#00AE95;" d="M211.891,209.067c-25.519-15.44-45.87-25.605-61.877-32.279
		c-7.631,7.726-14.484,15.953-20.543,24.598c13.563,11.684,33.047,26.062,61.048,43.004L211.891,209.067z"/>
	<path style="fill:#00AE95;" d="M467.127,313.5c0,0-107.804-22.785-169.49-89.209c-61.684,66.425-169.49,89.209-169.49,89.209
		l15.304-48.579l72.925-75.326l81.26-22.537l82.822,22.537l55.736,50.684l22.919,32.455L467.127,313.5z"/>
</g>
<path style="fill:#35E0CA;" d="M467.451,303.989c0,3.188-0.104,6.355-0.312,9.501l-0.01,0.01c0,0-65.31-123.901-169.49-123.901
	S128.149,313.5,128.149,313.5l-0.01-0.01c-0.208-3.146-0.312-6.313-0.312-9.501c0-86.594,76.03-156.789,169.812-156.789
	S467.451,217.395,467.451,303.989z"/>
<g>
	<path style="fill:#00AE95;" d="M205.64,347.232c-4.268,0-7.726-3.459-7.726-7.726v-17.888c0-4.267,3.458-7.726,7.726-7.726
		c4.268,0,7.726,3.459,7.726,7.726v17.888C213.367,343.773,209.909,347.232,205.64,347.232z"/>
	<path style="fill:#00AE95;" d="M217.822,373.525h-24.364c-4.268,0-7.726-3.459-7.726-7.726s3.458-7.726,7.726-7.726h24.364
		c4.268,0,7.726,3.459,7.726,7.726S222.09,373.525,217.822,373.525z"/>
	<path style="fill:#00AE95;" d="M389.635,347.232c-4.268,0-7.726-3.459-7.726-7.726v-17.888c0-4.267,3.458-7.726,7.726-7.726
		s7.726,3.459,7.726,7.726v17.888C397.361,343.773,393.903,347.232,389.635,347.232z"/>
	<path style="fill:#00AE95;" d="M401.818,373.525h-24.363c-4.268,0-7.726-3.459-7.726-7.726s3.458-7.726,7.726-7.726h24.363
		c4.268,0,7.726,3.459,7.726,7.726S406.085,373.525,401.818,373.525z"/>
	<path style="fill:#00AE95;" d="M297.639,372.514c-8.643,0-16.761-3.616-22.271-9.922c-2.809-3.213-2.481-8.094,0.732-10.902
		c3.213-2.808,8.094-2.481,10.901,0.732c2.578,2.948,6.455,4.639,10.638,4.639s8.06-1.69,10.638-4.639
		c2.807-3.213,7.69-3.541,10.901-0.732c3.213,2.808,3.542,7.689,0.732,10.902C314.399,368.897,306.281,372.514,297.639,372.514z"/>
</g>
<path style="fill:#2FC8B4;" d="M45.491,220.357l17.809,50.009c1.414,3.971,5.175,6.624,9.39,6.624h8.271
	c4.215,0,7.976-2.653,9.39-6.624l17.809-50.009H45.491z"/>
<path style="fill:#35E0CA;" d="M76.826,134.377L76.826,134.377c-26.899,0-48.705,21.806-48.705,48.704l0,0
	c0,26.899,21.806,48.704,48.704,48.704l0,0c26.898,0,48.704-21.806,48.704-48.704l0,0
	C125.529,156.182,103.724,134.377,76.826,134.377z"/>
<g>
</g>
<g>
</g>
<g>
</g>
<g>
</g>
<g>
</g>
<g>
</g>
<g>
</g>
<g>
</g>
<g>
</g>
<g>
</g>
<g>
</g>
<g>
</g>
<g>
</g>
<g>
</g>
<g>
</g>
</svg>
